<?xml version="1.0" encoding="utf-8"?>
<!-- Generator: Adobe Illustrator 18.0.0, SVG Export Plug-In . SVG Version: 6.00 Build 0)  -->
<!DOCTYPE svg PUBLIC "-//W3C//DTD SVG 1.1//EN" "http://www.w3.org/Graphics/SVG/1.1/DTD/svg11.dtd">
<svg version="1.1" id="Layer_1" xmlns="http://www.w3.org/2000/svg" xmlns:xlink="http://www.w3.org/1999/xlink" x="0px" y="0px"
	 viewBox="0 0 612 792" enable-background="new 0 0 612 792" xml:space="preserve">
<g>
	<linearGradient id="SVGID_1_" gradientUnits="userSpaceOnUse" x1="173.2488" y1="428.0992" x2="173.2488" y2="361.193">
		<stop  offset="0" style="stop-color:#48C8F5"/>
		<stop  offset="0.1514" style="stop-color:#48C2EF"/>
		<stop  offset="0.363" style="stop-color:#3FB4E3"/>
		<stop  offset="0.61" style="stop-color:#31A0D3"/>
		<stop  offset="0.8817" style="stop-color:#1986BE"/>
		<stop  offset="1" style="stop-color:#077AB5"/>
	</linearGradient>
	<path fill="url(#SVGID_1_)" d="M204.5,423.3l-15.8-19.6c9.8-2.8,15.1-10.4,15.1-20.5c0-14.9-9.7-22.9-29.2-22.9H153
		c-7.1,0-11,4.2-11,12v58h21.6v-21.8h3.9l9.9,13.2c4.5,6.3,7.9,9.2,14.6,9.2C201.3,430.8,205.1,424.2,204.5,423.3z M179.5,393.2h-20
		c-3.3,0-6-2.7-6-6s2.7-6,6-6c0.3,0,0.7,0,1,0.1c0.8-4.9,5-8.7,10.2-8.7c3.7,0,7,2,8.8,4.9c0,0,0,0,0,0c4.3,0,7.8,3.5,7.8,7.8
		C187.4,389.7,183.9,393.2,179.5,393.2z"/>
	<g>
		<path fill="#8A8888" d="M247,363.5c16.4,0,24.6,9.3,24.6,13.8c0,4.8-5.9,6.1-6.1,5.7c-3.7-6.6-11.1-10.1-18.5-10.1
			c-13.2,0-22.5,10-22.5,24.5c0,14.4,9.6,24.6,22.7,24.6c8.8,0,16.2-4.3,18.9-11.4c0.2-0.5,6.5,0.7,6.5,5.6s-8.6,15.3-26,15.3
			c-19.4,0-32.9-13.9-32.9-33.8C213.7,377.6,227.4,363.5,247,363.5z"/>
		<path fill="#8A8888" d="M282.7,361.9c0-0.3,1.7-1.1,3.6-1.1c3.1,0,6.4,1.6,6.4,8.6v60.8h-10V361.9z"/>
		<path fill="#8A8888" d="M328.9,380.3c14.8,0,25.4,10.7,25.4,25.7c0,14.8-10.5,25.5-25.5,25.5c-15,0-25.5-10.6-25.5-25.7
			C303.3,390.9,313.8,380.3,328.9,380.3z M328.8,423.3c9.3,0,16.2-7.4,16.2-17.3c0-10.1-6.8-17.5-16.2-17.5
			c-9.3,0-16.3,7.3-16.3,17.3C312.5,415.8,319.5,423.3,328.8,423.3z"/>
		<path fill="#8A8888" d="M364.2,381.6h9.9v27.8c0,8.4,4.2,13.3,11.6,13.3c6.1,0,10.8-3.4,13.3-8.6v-32.5h9.9v47.9
			c0,0.3-1.6,1.1-3.5,1.1c-3,0-6.2-1.4-6.4-7.7c-3.4,4.9-8.7,8.5-16.2,8.5c-12.8,0-18.7-8.7-18.7-20.8V381.6z"/>
		<path fill="#8A8888" d="M442.6,380.3c7.9,0,13.8,3.6,16.7,8v-26.5c0-0.3,1.7-1.1,3.6-1.1c3.1,0,6.4,1.6,6.4,8.6v60.8h-9.9v-8.1
			c-3.8,5.9-9.4,9.4-17.1,9.4c-13,0-22.7-10.2-22.7-25.6C419.6,390.5,429.1,380.3,442.6,380.3z M444.2,423.2c8.1,0,15.1-6,15.1-14.2
			v-10.3c-2.5-6.2-7.5-10-14.9-10c-9.1,0-15.2,6.9-15.2,17.3C429.2,416,435.5,423.2,444.2,423.2z"/>
	</g>
</g>
</svg>
